<svg width="100" height="100" viewBox="0 0 100 100" fill="none" xmlns="http://www.w3.org/2000/svg">
<path d="M33.3373 50C33.3373 40.7956 40.7972 33.332 50.002 33.332C59.2068 33.332 66.6707 40.7956 66.6707 50C66.6707 59.2044 59.2068 66.668 50.002 66.668C40.7972 66.668 33.3373 59.2044 33.3373 50ZM24.3266 50C24.3266 64.18 35.8214 75.6744 50.002 75.6744C64.1826 75.6744 75.6774 64.18 75.6774 50C75.6774 35.82 64.1826 24.3256 50.002 24.3256C35.8214 24.3256 24.3266 35.82 24.3266 50ZM70.6936 23.3076C70.6932 24.4943 71.0446 25.6545 71.7035 26.6414C72.3624 27.6284 73.2992 28.3978 74.3955 28.8524C75.4917 29.3069 76.6981 29.4262 77.8621 29.1952C79.0261 28.9641 80.0955 28.3931 80.935 27.5543C81.7745 26.7156 82.3464 25.6467 82.5783 24.4829C82.8103 23.3191 82.692 22.1127 82.2383 21.0161C81.7846 19.9196 81.0159 18.9822 80.0294 18.3225C79.0429 17.6628 77.883 17.3105 76.6963 17.31H76.6939C75.1031 17.3107 73.5778 17.9428 72.4527 19.0673C71.3277 20.1919 70.695 21.7169 70.6936 23.3076ZM29.8012 90.6988C24.9262 90.4768 22.2765 89.6648 20.5156 88.9788C18.1811 88.07 16.5155 86.9876 14.7642 85.2388C13.0129 83.49 11.9289 81.826 11.024 79.4916C10.3376 77.7316 9.52558 75.0812 9.30397 70.2064C9.06156 64.936 9.01316 63.3528 9.01316 50.0004C9.01316 36.648 9.06556 35.0692 9.30397 29.7944C9.52598 24.9196 10.344 22.2744 11.024 20.5092C11.9329 18.1748 13.0153 16.5092 14.7642 14.758C16.5131 13.0068 18.1771 11.9228 20.5156 11.018C22.2757 10.3316 24.9262 9.5196 29.8012 9.298C35.0718 9.0556 36.6551 9.0072 50.002 9.0072C63.3489 9.0072 64.9338 9.0596 70.2088 9.298C75.0838 9.52 77.7291 10.338 79.4944 11.018C81.8289 11.9228 83.4945 13.0092 85.2458 14.758C86.9971 16.5068 88.0771 18.1748 88.986 20.5092C89.6724 22.2692 90.4844 24.9196 90.706 29.7944C90.9484 35.0692 90.9968 36.648 90.9968 50.0004C90.9968 63.3528 90.9484 64.9316 90.706 70.2064C90.484 75.0812 89.668 77.7308 88.986 79.4916C88.0771 81.826 86.9947 83.4916 85.2458 85.2388C83.4969 86.986 81.8289 88.07 79.4944 88.9788C77.7343 89.6652 75.0838 90.4772 70.2088 90.6988C64.9382 90.9412 63.3549 90.9896 50.002 90.9896C36.6491 90.9896 35.0702 90.9412 29.8012 90.6988ZM29.3872 0.3028C24.0642 0.5452 20.4268 1.3892 17.2503 2.6252C13.9606 3.9016 11.1756 5.614 8.39274 8.3924C5.60982 11.1708 3.90176 13.96 2.6253 17.2496C1.38926 20.428 0.545222 24.0632 0.302812 29.386C0.0564023 34.7172 0 36.4216 0 50C0 63.5784 0.0564023 65.2828 0.302812 70.614C0.545222 75.9372 1.38926 79.572 2.6253 82.7504C3.90176 86.038 5.61022 88.8304 8.39274 91.6076C11.1752 94.3848 13.9606 96.0948 17.2503 97.3748C20.4328 98.6108 24.0642 99.4548 29.3872 99.6972C34.7214 99.9396 36.4231 100 50.002 100C63.5809 100 65.2854 99.9436 70.6168 99.6972C75.9402 99.4548 79.5752 98.6108 82.7537 97.3748C86.0414 96.0948 88.8284 94.386 91.6113 91.6076C94.3942 88.8292 96.0986 86.038 97.3787 82.7504C98.6148 79.572 99.4628 75.9368 99.7012 70.614C99.9436 65.2788 100 63.5784 100 50C100 36.4216 99.9436 34.7172 99.7012 29.386C99.4588 24.0628 98.6148 20.426 97.3787 17.2496C96.0986 13.962 94.3898 11.1752 91.6113 8.3924C88.8328 5.6096 86.0415 3.9016 82.7577 2.6252C79.5752 1.3892 75.9398 0.5412 70.6208 0.3028C65.2894 0.0604 63.5849 0 50.006 0C36.4271 0 34.7214 0.0564 29.3872 0.3028Z" fill="url(#paint0_linear_91_634)"/>
<defs>
<linearGradient id="paint0_linear_91_634" x1="2.5" y1="2.08333" x2="94.5833" y2="104.167" gradientUnits="userSpaceOnUse">
<stop stop-color="#7A96AC"/>
<stop offset="0.18" stop-color="#EAEFF3"/>
<stop offset="0.315" stop-color="#C2D4E1"/>
<stop offset="0.491919" stop-color="white"/>
<stop offset="0.615" stop-color="#D4DEE5"/>
<stop offset="0.785" stop-color="#ABBDC8"/>
<stop offset="0.955" stop-color="#BCCAD7"/>
</linearGradient>
</defs>
</svg>
