<svg width="100" height="100" viewBox="0 0 100 100" fill="none" xmlns="http://www.w3.org/2000/svg">
<g clip-path="url(#clip0_93_191)">
<path d="M50 100C77.6142 100 100 77.6142 100 50C100 22.3858 77.6142 0 50 0C22.3858 0 0 22.3858 0 50C0 77.6142 22.3858 100 50 100Z" fill="url(#paint0_linear_93_191)"/>
<path fill-rule="evenodd" clip-rule="evenodd" d="M22.6327 49.4723C37.2088 43.1217 46.9284 38.9351 51.7916 36.9123C65.6772 31.1368 68.5625 30.1336 70.443 30.1005C70.8567 30.0932 71.7815 30.1957 72.3806 30.6818C72.8864 31.0922 73.0256 31.6467 73.0922 32.0358C73.1588 32.425 73.2417 33.3115 73.1758 34.0042C72.4233 41.9103 69.1674 61.0965 67.511 69.9516C66.8101 73.6985 65.43 74.9548 64.094 75.0777C61.1904 75.3449 58.9855 73.1588 56.1732 71.3154C51.7726 68.4307 49.2865 66.635 45.0149 63.8201C40.0783 60.5669 43.2785 58.779 46.0919 55.8569C46.8281 55.0922 59.6214 43.4557 59.869 42.4001C59.9 42.2681 59.9287 41.776 59.6364 41.5161C59.344 41.2563 58.9125 41.3451 58.6012 41.4158C58.1598 41.516 51.1297 46.1626 37.5109 55.3557C35.5154 56.7259 33.708 57.3936 32.0886 57.3586C30.3033 57.32 26.8692 56.3492 24.3163 55.5193C21.185 54.5015 18.6964 53.9633 18.9131 52.2347C19.0259 51.3343 20.2658 50.4135 22.6327 49.4723Z" fill="#050E21"/>
</g>
<defs>
<linearGradient id="paint0_linear_93_191" x1="2.5" y1="2.08333" x2="94.5833" y2="104.167" gradientUnits="userSpaceOnUse">
<stop stop-color="#7A96AC"/>
<stop offset="0.18" stop-color="#EAEFF3"/>
<stop offset="0.315" stop-color="#C2D4E1"/>
<stop offset="0.491919" stop-color="white"/>
<stop offset="0.615" stop-color="#D4DEE5"/>
<stop offset="0.785" stop-color="#ABBDC8"/>
<stop offset="0.955" stop-color="#BCCAD7"/>
</linearGradient>
<clipPath id="clip0_93_191">
<rect width="100" height="100" fill="white"/>
</clipPath>
</defs>
</svg>
