<svg width="94" height="100" viewBox="0 0 94 100" fill="none" xmlns="http://www.w3.org/2000/svg">
<path d="M22.6132 90.2658C22.6132 88.5925 22.6132 86.9191 22.6132 85.2457C22.6251 85.1773 22.6227 85.1072 22.6061 85.0398C22.5896 84.9723 22.5592 84.909 22.517 84.8536C22.4747 84.7983 22.4214 84.7521 22.3604 84.7179C22.2994 84.6838 22.232 84.6624 22.1623 84.6551C17.9768 83.4769 14.1136 81.3778 10.8607 78.5144C8.49052 76.3779 6.51712 73.8459 5.03026 71.0335C2.93454 66.9709 1.53981 62.5894 0.903891 58.0706C0.115982 52.4021 -0.157657 46.6751 0.086258 40.9583C0.139748 38.293 0.277294 35.658 0.582951 32.9928C1.07042 27.928 2.35978 22.9708 4.40366 18.3035C6.92748 12.5648 11.506 7.95517 17.2565 5.36329C21.1738 3.58702 25.2949 2.29026 29.5287 1.50167C33.6806 0.722408 37.8843 0.244117 42.1065 0.0706017C45.9123 -0.06276 49.7225 -0.00716385 53.5228 0.237181C58.9618 0.464672 64.3517 1.35734 69.5697 2.89488C73.4386 3.99996 77.1191 5.67159 80.4893 7.85441C83.7732 10.0882 86.4292 13.1134 88.2072 16.6453C90.2975 20.7703 91.7184 25.1961 92.4176 29.7596C92.8718 32.469 93.1703 35.2018 93.3117 37.9447C93.5103 41.3445 93.4874 44.7593 93.3575 48.1439C93.2276 51.5285 92.9372 54.8147 92.5169 58.1311C91.9857 63.1088 90.4416 67.9282 87.9779 72.298C84.7712 77.8259 79.6342 82.0003 73.5356 84.0343C69.3656 85.4813 65.0598 86.5111 60.6828 87.1084C57.481 87.5476 54.2716 87.8656 51.0469 87.9943C48.5788 88.1079 46.1106 88.0776 43.6424 88.0397C42.244 88.0397 40.8533 87.9034 39.4625 87.7823C39.326 87.7568 39.1849 87.772 39.0571 87.8259C38.9292 87.8798 38.8204 87.97 38.7442 88.0852C35.9322 91.4319 33.0132 94.6878 30.0712 97.9285C29.5353 98.5197 28.9149 99.03 28.2296 99.4429C27.7798 99.7353 27.2669 99.9188 26.7323 99.9786C26.1978 100.038 25.6565 99.9727 25.1522 99.787C24.648 99.6013 24.1948 99.3007 23.8295 98.9094C23.4641 98.5182 23.1966 98.0473 23.0487 97.5348C22.7575 96.624 22.6131 95.6734 22.6208 94.7181C22.6132 93.2188 22.6132 91.7423 22.6132 90.2658ZM26.0136 96.6186L26.3728 96.2854L32.7534 89.2664C35.2088 86.5658 37.6617 83.8626 40.112 81.157C40.2325 80.9919 40.395 80.8615 40.5829 80.779C40.7709 80.6965 40.9776 80.665 41.1818 80.6875C42.0148 80.7708 42.8477 80.8011 43.6882 80.8087C46.592 80.8087 49.4957 80.8087 52.3995 80.6042C55.0358 80.3998 57.6644 80.0818 60.2778 79.6729C63.0915 79.1875 65.877 78.5531 68.6222 77.7724C74.7354 76.1444 79.4654 72.6614 82.4379 67.0204C84.1928 63.5523 85.2934 59.7955 85.6855 55.9353C86.15 52.297 86.428 48.6376 86.5184 44.9714C86.6539 40.3658 86.3365 35.7581 85.5709 31.2134C85.04 27.9208 84.0847 24.7093 82.7283 21.6578C81.0013 17.8719 78.5561 14.7372 74.7888 12.7231C69.0119 9.63378 62.7612 8.25571 56.3195 7.55154C54.4932 7.35467 52.6669 7.24866 50.833 7.18052C47.0778 6.98869 43.3147 7.00891 39.5619 7.24109C36.8629 7.43957 34.1785 7.79861 31.5231 8.31629C27.618 9.02166 23.8401 10.2975 20.3131 12.1022C18.2684 13.126 16.4133 14.4854 14.8266 16.1228C12.255 18.9709 10.3686 22.3597 9.30946 26.0343C8.05295 30.3139 7.36703 34.7381 7.2692 39.1941C7.02333 43.65 7.0795 48.1174 7.43731 52.5659C7.65993 55.2132 8.10726 57.8373 8.77456 60.4103C9.76739 64.4198 11.6934 68.1435 14.3986 71.2834C17.3192 74.4867 21.0939 76.8071 25.2877 77.9768C25.8149 78.1358 26.0518 78.3176 26.0518 78.9082C26.006 81.0888 26.0518 83.2695 26.0518 85.4502L26.0136 96.6186Z" fill="url(#paint0_linear_100_684)"/>
<path d="M20.6661 28.9879C20.6126 27.3296 21.5219 26.1257 22.6223 25.043C24.0735 23.6654 25.6724 22.4492 27.3905 21.4161C28.174 20.9373 29.1055 20.7549 30.0138 20.9024C30.9221 21.0498 31.7462 21.5172 32.3345 22.2187C34.4132 24.3839 36.2738 26.7448 37.8898 29.268C38.6901 30.403 39.2943 31.662 39.6779 32.9934C39.8312 33.5129 39.8412 34.0637 39.7068 34.5883C39.5724 35.113 39.2986 35.5924 38.9138 35.9766C38.0322 36.8341 37.0927 37.631 36.1017 38.3618C35.6024 38.7561 35.2312 39.2872 35.0342 39.889C34.8371 40.4908 34.8231 41.1367 34.9937 41.7463C35.6057 44.6091 36.9925 47.2527 39.0055 49.3939C41.4515 52.3527 44.603 54.661 48.1752 56.1101C49.053 56.5573 50.0587 56.6935 51.0255 56.4962C51.5549 56.3531 52.0254 56.0484 52.3703 55.6255C52.9052 54.9516 53.486 54.3004 53.9674 53.5811C54.5918 52.6838 55.5452 52.0637 56.6243 51.8529C57.7035 51.6422 58.823 51.8575 59.7443 52.4529C62.3346 53.942 64.7801 55.6657 67.0495 57.6017C67.5844 58.056 68.1422 58.4952 68.6771 58.957C69.31 59.4353 69.7671 60.1062 69.9783 60.8666C70.1895 61.6271 70.1431 62.4352 69.8463 63.167C69.3742 64.3976 68.686 65.5358 67.8137 66.5288C66.7296 68.0218 65.3487 69.2793 63.7561 70.2239C62.9947 70.6669 62.1392 70.9271 61.2581 70.9836C60.377 71.0402 59.4948 70.8915 58.6822 70.5495C52.4997 68.083 46.723 64.717 41.5424 60.5623C36.4754 56.429 32.0472 51.582 28.3992 46.1758C25.3296 41.7005 22.8875 36.8327 21.1398 31.7061C20.9537 31.0861 20.8007 30.4568 20.6813 29.8208C20.6474 29.5444 20.6423 29.2653 20.6661 28.9879Z" fill="url(#paint1_linear_100_684)"/>
<path d="M47.0481 20.9316C52.2207 21.0264 57.1957 22.917 61.1057 26.2739C65.0158 29.6308 67.6128 34.241 68.4441 39.3008C68.7787 41.1404 68.9576 43.0045 68.979 44.8736C68.979 45.3128 68.8643 45.6308 68.3906 45.6763C67.9168 45.7217 67.7945 45.3204 67.7945 44.9191C67.8655 41.1383 67.0823 37.3896 65.5021 33.9475C64.1714 31.1192 62.2001 28.6333 59.7416 26.683C57.2831 24.7328 54.4036 23.371 51.3273 22.7034C49.7008 22.3303 48.0375 22.1373 46.368 22.128C46.2054 22.1307 46.0433 22.1103 45.8866 22.0674C45.7531 22.0301 45.6395 21.943 45.5697 21.8243C45.4998 21.7057 45.4792 21.5648 45.5121 21.4314C45.5131 21.3681 45.5268 21.3056 45.5524 21.2476C45.578 21.1896 45.615 21.1372 45.6612 21.0935C45.7074 21.0498 45.762 21.0157 45.8217 20.9931C45.8814 20.9705 45.945 20.9599 46.0088 20.9619C46.3527 20.9165 46.7042 20.9316 47.0481 20.9316Z" fill="url(#paint2_linear_100_684)"/>
<path d="M61.799 41.4659C61.7733 39.3624 61.2505 37.294 60.2725 35.4268C59.2945 33.5596 57.8885 31.9455 56.1672 30.714C54.1584 29.3157 51.823 28.4479 49.3816 28.1926C48.969 28.1396 48.5564 28.1168 48.1361 28.0714C47.7158 28.026 47.4636 27.8518 47.5019 27.4278C47.5401 27.0038 47.8075 26.8524 48.266 26.8826C55.0363 27.2915 60.7979 31.085 62.5707 38.1495C62.895 39.5116 63.0566 40.9068 63.0522 42.3064C63.0522 42.4351 63.0522 42.5638 63.0522 42.685C63.0522 43.0636 62.8076 43.3134 62.4332 43.3059C62.3502 43.3031 62.2686 43.2836 62.1934 43.2485C62.1182 43.2135 62.051 43.1636 61.996 43.1019C61.9409 43.0403 61.8991 42.9682 61.8731 42.89C61.8471 42.8118 61.8375 42.7291 61.8448 42.6471C61.7837 42.2912 61.799 41.9278 61.799 41.4659Z" fill="url(#paint3_linear_100_684)"/>
<path d="M49.9373 33.0305C53.651 33.2804 56.2414 35.0824 56.9521 38.9971C57.0383 39.4986 57.0995 40.004 57.1355 40.5114C57.1355 40.9203 57.0438 41.2686 56.5929 41.2686C56.1421 41.2686 55.9893 40.9657 55.974 40.5114C55.9698 39.0108 55.5032 37.5473 54.6367 36.3166C53.7261 35.202 52.4189 34.4757 50.9841 34.2874C50.6634 34.228 50.3393 34.1875 50.0137 34.1663C49.4788 34.1663 49.1808 33.9012 49.2495 33.4924C49.3183 33.0835 49.6392 33.0078 49.9373 33.0305Z" fill="url(#paint4_linear_100_684)"/>
<defs>
<linearGradient id="paint0_linear_100_684" x1="2.33645" y1="2.08333" x2="94.8515" y2="97.9356" gradientUnits="userSpaceOnUse">
<stop stop-color="#7A96AC"/>
<stop offset="0.18" stop-color="#EAEFF3"/>
<stop offset="0.315" stop-color="#C2D4E1"/>
<stop offset="0.491919" stop-color="white"/>
<stop offset="0.615" stop-color="#D4DEE5"/>
<stop offset="0.785" stop-color="#ABBDC8"/>
<stop offset="0.955" stop-color="#BCCAD7"/>
</linearGradient>
<linearGradient id="paint1_linear_100_684" x1="21.8878" y1="21.8972" x2="68.122" y2="72.4516" gradientUnits="userSpaceOnUse">
<stop stop-color="#7A96AC"/>
<stop offset="0.18" stop-color="#EAEFF3"/>
<stop offset="0.315" stop-color="#C2D4E1"/>
<stop offset="0.491919" stop-color="white"/>
<stop offset="0.615" stop-color="#D4DEE5"/>
<stop offset="0.785" stop-color="#ABBDC8"/>
<stop offset="0.955" stop-color="#BCCAD7"/>
</linearGradient>
<linearGradient id="paint2_linear_100_684" x1="46.0839" y1="21.4448" x2="68.9671" y2="45.513" gradientUnits="userSpaceOnUse">
<stop stop-color="#7A96AC"/>
<stop offset="0.18" stop-color="#EAEFF3"/>
<stop offset="0.315" stop-color="#C2D4E1"/>
<stop offset="0.491919" stop-color="white"/>
<stop offset="0.615" stop-color="#D4DEE5"/>
<stop offset="0.785" stop-color="#ABBDC8"/>
<stop offset="0.955" stop-color="#BCCAD7"/>
</linearGradient>
<linearGradient id="paint3_linear_100_684" x1="47.8869" y1="27.2211" x2="63.0761" y2="43.1651" gradientUnits="userSpaceOnUse">
<stop stop-color="#7A96AC"/>
<stop offset="0.18" stop-color="#EAEFF3"/>
<stop offset="0.315" stop-color="#C2D4E1"/>
<stop offset="0.491919" stop-color="white"/>
<stop offset="0.615" stop-color="#D4DEE5"/>
<stop offset="0.785" stop-color="#ABBDC8"/>
<stop offset="0.955" stop-color="#BCCAD7"/>
</linearGradient>
<linearGradient id="paint4_linear_100_684" x1="49.4371" y1="33.1986" x2="57.053" y2="41.287" gradientUnits="userSpaceOnUse">
<stop stop-color="#7A96AC"/>
<stop offset="0.18" stop-color="#EAEFF3"/>
<stop offset="0.315" stop-color="#C2D4E1"/>
<stop offset="0.491919" stop-color="white"/>
<stop offset="0.615" stop-color="#D4DEE5"/>
<stop offset="0.785" stop-color="#ABBDC8"/>
<stop offset="0.955" stop-color="#BCCAD7"/>
</linearGradient>
</defs>
</svg>
