<svg width="100" height="56" viewBox="0 0 100 56" fill="none" xmlns="http://www.w3.org/2000/svg">
<path fill-rule="evenodd" clip-rule="evenodd" d="M97.7053 3.82276C98.4005 1.63974 97.7053 0.0356445 94.3969 0.0356445H83.4569C80.6752 0.0356445 79.3928 1.42135 78.6973 2.94937C78.6973 2.94937 73.1339 15.7199 65.2526 24.0152C62.7029 26.4164 61.5437 27.1804 60.1529 27.1804C59.4576 27.1804 58.4509 26.4164 58.4509 24.2336V3.82277C58.4509 1.20314 57.6436 0.0356445 55.3254 0.0356445H38.1339C36.3956 0.0356445 35.3501 1.25147 35.3501 2.40376C35.3501 4.88711 39.2906 5.4598 39.6967 12.4455V27.6172C39.6967 30.9436 39.0589 31.5466 37.668 31.5466C33.9593 31.5466 24.9378 18.7191 19.5872 4.04097C18.5386 1.18807 17.4869 0.0356445 14.6909 0.0356445H3.7509C0.625178 0.0356445 0 1.42135 0 2.94937C0 5.67819 3.70891 19.2127 17.2693 37.1131C26.3095 49.3376 39.0466 55.9642 50.6368 55.9642C57.5908 55.9642 58.4511 54.4924 58.4511 51.9572V42.718C58.4511 39.7744 59.1099 39.1869 61.312 39.1869C62.9346 39.1869 65.7163 39.9509 72.2069 45.845C79.6245 52.8305 80.8474 55.9642 85.0198 55.9642H95.9598C99.0855 55.9642 100.648 54.4924 99.7468 51.5879C98.7602 48.6931 95.2187 44.4931 90.5194 39.5143C87.9694 36.6765 84.1447 33.6205 82.9856 32.0921C81.363 30.1276 81.8266 29.2542 82.9856 27.508C82.9856 27.508 96.3145 9.82583 97.7053 3.82276Z" fill="url(#paint0_linear_91_633)"/>
<defs>
<linearGradient id="paint0_linear_91_633" x1="2.5" y1="1.20082" x2="44.142" y2="83.7422" gradientUnits="userSpaceOnUse">
<stop stop-color="#7A96AC"/>
<stop offset="0.18" stop-color="#EAEFF3"/>
<stop offset="0.315" stop-color="#C2D4E1"/>
<stop offset="0.491919" stop-color="white"/>
<stop offset="0.615" stop-color="#D4DEE5"/>
<stop offset="0.785" stop-color="#ABBDC8"/>
<stop offset="0.955" stop-color="#BCCAD7"/>
</linearGradient>
</defs>
</svg>
