<svg width="100" height="100" viewBox="0 0 100 100" fill="none" xmlns="http://www.w3.org/2000/svg">
<path d="M0 99.9998L7.02915 74.3207C2.69166 66.804 0.412499 58.2832 0.416666 49.5457C0.429166 22.2291 22.6583 0 49.9707 0C63.2249 0.00416666 75.6665 5.16666 85.0248 14.5333C94.379 23.8999 99.529 36.3499 99.5248 49.5916C99.5123 76.9123 77.2832 99.1414 49.9707 99.1414C41.6791 99.1373 33.5083 97.0581 26.2708 93.1081L0 99.9998ZM27.4874 84.1373C34.4708 88.2831 41.1374 90.7665 49.9541 90.7706C72.654 90.7706 91.1456 72.2957 91.1581 49.5832C91.1665 26.8249 72.7623 8.37498 49.9874 8.36665C27.2708 8.36665 8.79165 26.8416 8.78331 49.5499C8.77915 58.8207 11.4958 65.7624 16.0583 73.0248L11.8958 88.2248L27.4874 84.1373ZM74.9332 61.3707C74.6248 60.854 73.7998 60.5457 72.5582 59.9249C71.3207 59.304 65.2332 56.3082 64.0957 55.8957C62.9624 55.4832 62.1374 55.2749 61.3082 56.5165C60.4832 57.754 58.1082 60.5457 57.3874 61.3707C56.6665 62.1957 55.9415 62.2999 54.704 61.679C53.4665 61.0582 49.4749 59.754 44.7457 55.5332C41.0666 52.2499 38.5791 48.1957 37.8582 46.9541C37.1374 45.7166 37.7832 45.0457 38.3999 44.4291C38.9582 43.8749 39.6374 42.9832 40.2582 42.2582C40.8874 41.5416 41.0916 41.0249 41.5082 40.1957C41.9207 39.3707 41.7166 38.6457 41.4041 38.0249C41.0916 37.4083 38.6166 31.3124 37.5874 28.8333C36.5791 26.4208 35.5583 26.7458 34.7999 26.7083L32.4249 26.6666C31.5999 26.6666 30.2583 26.9749 29.1249 28.2166C27.9916 29.4583 24.7916 32.4499 24.7916 38.5457C24.7916 44.6416 29.2291 50.5291 29.8458 51.3541C30.4666 52.1791 38.5749 64.6874 50.9957 70.0498C53.9499 71.3248 56.2582 72.0873 58.054 72.6582C61.0207 73.5998 63.7207 73.4665 65.854 73.1498C68.2332 72.7957 73.179 70.154 74.2123 67.2623C75.2457 64.3665 75.2457 61.8874 74.9332 61.3707Z" fill="url(#paint0_linear_110_942)"/>
<defs>
<linearGradient id="paint0_linear_110_942" x1="2.48812" y1="2.08333" x2="94.6153" y2="103.73" gradientUnits="userSpaceOnUse">
<stop stop-color="#7A96AC"/>
<stop offset="0.18" stop-color="#EAEFF3"/>
<stop offset="0.315" stop-color="#C2D4E1"/>
<stop offset="0.491919" stop-color="white"/>
<stop offset="0.615" stop-color="#D4DEE5"/>
<stop offset="0.785" stop-color="#ABBDC8"/>
<stop offset="0.955" stop-color="#BCCAD7"/>
</linearGradient>
</defs>
</svg>
